<svg xmlns="http://www.w3.org/2000/svg" width="512" height="512" viewBox="0 0 512 512">
  <path fill="#333" d="M440.5 385.9c-6.6-6.6-15.4-10.3-24.9-10.3s-18.3 3.7-24.9 10.3c-13.7 13.7-13.7 35.9 0 49.6 6.6 6.6 15.4 10.3 24.9 10.3s18.3-3.7 24.9-10.3c13.7-13.7 13.7-35.9 0-49.6zm-277.1 0c-6.6-6.6-15.4-10.3-24.9-10.3s-18.3 3.7-24.9 10.3c-13.7 13.7-13.7 35.9 0 49.6 6.6 6.6 15.4 10.3 24.9 10.3s18.3-3.7 24.9-10.3c13.7-13.7 13.7-35.9 0-49.6zm97.8 0c-6.6-6.6-15.4-10.3-24.9-10.3s-18.3 3.7-24.9 10.3c-13.7 13.7-13.7 35.9 0 49.6 6.6 6.6 15.4 10.3 24.9 10.3s18.3-3.7 24.9-10.3c13.7-13.7 13.7-35.9 0-49.6zm179.3-233.5c0-66.3-53.9-120.2-120.2-120.2-33.1 0-63.1 13.4-84.9 35.1-21.8-21.7-51.8-35.1-84.9-35.1-66.3 0-120.2 53.9-120.2 120.2 0 32.9 13.3 62.8 34.8 84.5-21.5 21.7-34.8 51.6-34.8 84.5 0 66.3 53.9 120.2 120.2 120.2 33.1 0 63.1-13.4 84.9-35.1 21.8 21.7 51.8 35.1 84.9 35.1 66.3 0 120.2-53.9 120.2-120.2 0-32.9-13.3-62.8-34.8-84.5 21.5-21.7 34.8-51.6 34.8-84.5zm-60.1 0c0 33.1-26.9 60.1-60.1 60.1-16.6 0-31.6-6.7-42.5-17.6-10.9 10.8-25.9 17.6-42.5 17.6s-31.6-6.7-42.5-17.6c-10.9 10.8-25.9 17.6-42.5 17.6-33.1 0-60.1-26.9-60.1-60.1 0-33.1 26.9-60.1 60.1-60.1 16.6 0 31.6 6.7 42.5 17.6 10.9-10.8 25.9-17.6 42.5-17.6s31.6 6.7 42.5 17.6c10.9-10.8 25.9-17.6 42.5-17.6 33.1 0 60.1 26.9 60.1 60.1zm0 169c0 33.1-26.9 60.1-60.1 60.1-16.6 0-31.6-6.7-42.5-17.6-10.9 10.8-25.9 17.6-42.5 17.6s-31.6-6.7-42.5-17.6c-10.9 10.8-25.9 17.6-42.5 17.6-33.1 0-60.1-26.9-60.1-60.1 0-33.1 26.9-60.1 60.1-60.1 16.6 0 31.6 6.7 42.5 17.6 10.9-10.8 25.9-17.6 42.5-17.6s31.6 6.7 42.5 17.6c10.9-10.8 25.9-17.6 42.5-17.6 33.1 0 60.1 26.9 60.1 60.1z"/>
</svg> 